<svg id="Layer_1" data-name="Layer 1" xmlns="http://www.w3.org/2000/svg" width="818" height="257.99"><defs><style>.cls-2{fill:#333}.cls-3{fill:#00a8d6}.cls-4{fill:#fff}</style></defs><path d="M347.586 227.586c-22.481.029-48.364.049-48.435.049-22.808 0-41.3-19.894-41.3-44.435 0-24.052 17.759-43.637 39.937-44.41a84.736 84.736 0 0 1-6.608-32.992c0-44.125 33.243-79.9 74.251-79.9C395.276 25.9 421 44.847 432.8 72.167a38.379 38.379 0 0 1 28.142-12.513c22.018 0 39.868 19.206 39.868 42.9 32.1 0 58.122 27.982 58.122 62.523 0 31.7-21.953 58.2-50.378 62.291-.719 0-21.565.015-38.87.037z" fill="#00a7dd" opacity=".2"/><path class="cls-2" d="M37.832 34.035h4.418c2.625 0 4.258 1.488 4.258 3.745v.032c0 2.513-2.017 3.825-4.482 3.825H39.8v3.6h-1.968zm4.258 5.826c1.489 0 2.417-.833 2.417-2v-.032c0-1.313-.945-2-2.417-2H39.8v4.034zM48.52 34.035h4.994a4.519 4.519 0 0 1 3.234 1.12 3.39 3.39 0 0 1 .928 2.417v.028a3.363 3.363 0 0 1-2.657 3.4l3.025 4.242h-2.336l-2.754-3.906h-2.465v3.906H48.52zm4.851 5.553c1.408 0 2.3-.736 2.3-1.873v-.031c0-1.2-.864-1.857-2.321-1.857h-2.861v3.761zM59.591 39.668v-.032a5.859 5.859 0 0 1 11.717-.036v.032a5.859 5.859 0 0 1-11.717.032zm9.653 0v-.032a3.839 3.839 0 0 0-3.81-3.985 3.785 3.785 0 0 0-3.778 3.949v.032a3.826 3.826 0 0 0 3.809 3.97 3.773 3.773 0 0 0 3.779-3.934zM73.688 34.035h4.178c3.521 0 5.954 2.417 5.954 5.569v.032a5.609 5.609 0 0 1-5.954 5.6h-4.178zm1.969 1.792v7.619h2.209a3.651 3.651 0 0 0 3.889-3.778v-.032a3.676 3.676 0 0 0-3.889-3.809zM86.024 40.485v-6.45h1.969v6.37c0 2.081 1.072 3.185 2.833 3.185 1.745 0 2.817-1.041 2.817-3.105v-6.45h1.969v6.354c0 3.345-1.889 5.026-4.819 5.026-2.913 0-4.769-1.681-4.769-4.93zM97.816 39.668v-.032a5.67 5.67 0 0 1 5.778-5.794 5.841 5.841 0 0 1 4.386 1.744l-1.265 1.457a4.455 4.455 0 0 0-3.136-1.392 3.772 3.772 0 0 0-3.7 3.953v.032a3.775 3.775 0 0 0 3.7 3.97 4.375 4.375 0 0 0 3.216-1.44l1.265 1.28a5.779 5.779 0 0 1-4.546 1.985 5.635 5.635 0 0 1-5.698-5.763zM110.12 34.035h8.307V35.8h-6.339v2.913h5.619v1.761h-5.619v3.009h6.419v1.761h-8.387zM120.839 34.035h4.994a4.518 4.518 0 0 1 3.234 1.12 3.387 3.387 0 0 1 .933 2.417v.028a3.364 3.364 0 0 1-2.662 3.4l3.026 4.242h-2.337l-2.754-3.906h-2.465v3.906h-1.969zm4.851 5.553c1.408 0 2.305-.736 2.305-1.873v-.031c0-1.2-.865-1.857-2.322-1.857h-2.865v3.761zM131.656 43.606l1.184-1.406a5.194 5.194 0 0 0 3.537 1.456c1.217 0 1.985-.576 1.985-1.408v-.033c0-.8-.447-1.232-2.529-1.713-2.384-.576-3.729-1.28-3.729-3.344v-.032c0-1.921 1.6-3.249 3.825-3.249A6.212 6.212 0 0 1 140 35.283l-1.056 1.488a5.094 5.094 0 0 0-3.042-1.152c-1.152 0-1.824.592-1.824 1.329v.031c0 .865.511 1.249 2.673 1.761 2.369.576 3.586 1.425 3.586 3.281v.032c0 2.1-1.65 3.346-4 3.346a6.9 6.9 0 0 1-4.681-1.793z"/><path class="cls-3" d="M226.87 174.316h17.16v2.033h-17.16z"/><path class="cls-3" d="M243.139 178.374l5.267-3.041-5.267-3.042v6.083zM142.131 174.316h30.041v2.033h-30.041z"/><path d="M176.23 170.414h6.225v1.319h-4.749v2.183h4.21v1.319h-4.21v2.255h4.809v1.319h-6.285zM183.55 170.414h1.632l2.53 6.452 2.519-6.452h1.6l-3.479 8.455h-1.307zM193.27 170.414h6.23v1.319h-4.749v2.183h4.21v1.319h-4.21v2.255h4.809v1.319h-6.29zM201.31 170.414h1.367l4.5 5.8v-5.8h1.451v8.4h-1.235l-4.63-5.973v5.973h-1.453zM212.853 171.781h-2.663v-1.367H217v1.367h-2.66v7.028h-1.487zM217.823 177.585l.887-1.054a3.893 3.893 0 0 0 2.651 1.091c.911 0 1.487-.432 1.487-1.056v-.024c0-.6-.336-.923-1.894-1.283-1.787-.431-2.8-.96-2.8-2.507v-.024c0-1.438 1.2-2.435 2.866-2.435a4.659 4.659 0 0 1 3.047 1.056l-.792 1.115A3.817 3.817 0 0 0 221 171.6c-.864 0-1.367.443-1.367 1v.025c0 .647.384.935 2 1.319 1.775.432 2.687 1.067 2.687 2.458v.024c0 1.572-1.236 2.507-3 2.507a5.171 5.171 0 0 1-3.497-1.348z"/><path class="cls-3" d="M226.87 216.385h27.16v2.033h-27.16z"/><path class="cls-3" d="M253.139 220.443l5.267-3.041-5.267-3.042v6.083zM142.131 216.385h30.041v2.033h-30.041z"/><path d="M176.23 212.482h6.225v1.32h-4.749v2.182h4.21v1.32h-4.21v2.255h4.809v1.319h-6.285zM183.55 212.482h1.632l2.53 6.453 2.519-6.453h1.6l-3.479 8.456h-1.307zM193.27 212.482h6.23v1.32h-4.749v2.182h4.21v1.32h-4.21v2.255h4.809v1.319h-6.29zM201.31 212.482h1.367l4.5 5.805v-5.805h1.451v8.4h-1.235l-4.63-5.973v5.973h-1.453zM212.853 213.85h-2.663v-1.368H217v1.368h-2.66v7.028h-1.487zM217.823 219.654l.887-1.054a3.892 3.892 0 0 0 2.651 1.09c.911 0 1.487-.431 1.487-1.055v-.024c0-.6-.336-.923-1.894-1.283-1.787-.432-2.8-.96-2.8-2.507v-.021c0-1.439 1.2-2.435 2.866-2.435a4.653 4.653 0 0 1 3.047 1.056l-.792 1.115a3.817 3.817 0 0 0-2.275-.866c-.864 0-1.367.443-1.367 1v.024c0 .648.384.936 2 1.32 1.775.431 2.687 1.067 2.687 2.458v.024c0 1.571-1.236 2.507-3 2.507a5.171 5.171 0 0 1-3.497-1.349z"/><path class="cls-3" d="M226.87 129.481h48.16v2.033h-48.16z"/><path class="cls-3" d="M274.139 133.539l5.267-3.041-5.267-3.041v6.082zM142.131 129.481h30.041v2.033h-30.041z"/><path d="M176.23 125.579h6.225v1.321h-4.749v2.183h4.21v1.317h-4.21v2.255h4.809v1.32h-6.285zM183.55 125.579h1.632l2.53 6.452 2.519-6.452h1.6l-3.479 8.455h-1.307zM193.27 125.579h6.23v1.321h-4.749v2.183h4.21v1.317h-4.21v2.255h4.809v1.32h-6.29zM201.31 125.579h1.367l4.5 5.8v-5.8h1.451v8.4h-1.235L202.761 128v5.973h-1.451zM212.853 126.946h-2.663v-1.367H217v1.367h-2.66v7.029h-1.487zM217.823 132.751l.887-1.055a3.889 3.889 0 0 0 2.651 1.091c.911 0 1.487-.432 1.487-1.056v-.023c0-.6-.336-.924-1.894-1.283-1.787-.432-2.8-.96-2.8-2.507v-.024c0-1.439 1.2-2.435 2.866-2.435a4.653 4.653 0 0 1 3.047 1.056l-.792 1.115a3.811 3.811 0 0 0-2.279-.863c-.864 0-1.367.443-1.367 1v.024c0 .648.384.936 2 1.319 1.775.432 2.687 1.068 2.687 2.458v.025c0 1.571-1.236 2.507-3 2.507a5.176 5.176 0 0 1-3.493-1.349z"/><path class="cls-3" d="M226.87 86.683h53.16v2.033h-53.16z"/><path class="cls-3" d="M279.139 90.741l5.267-3.041-5.267-3.041v6.082zM142.131 86.683h30.041v2.033h-30.041z"/><path d="M176.23 82.78h6.225v1.32h-4.749v2.182h4.21V87.6h-4.21v2.254h4.809v1.32h-6.285zM183.55 82.78h1.632l2.53 6.452 2.519-6.452h1.6l-3.479 8.455h-1.307zM193.27 82.78h6.23v1.32h-4.749v2.182h4.21V87.6h-4.21v2.254h4.809v1.32h-6.29zM201.31 82.78h1.367l4.5 5.8v-5.8h1.451v8.4h-1.235l-4.63-5.973v5.973h-1.453zM212.853 84.147h-2.663V82.78H217v1.367h-2.66v7.029h-1.487zM217.823 89.952l.887-1.055a3.889 3.889 0 0 0 2.651 1.091c.911 0 1.487-.431 1.487-1.055v-.024c0-.6-.336-.924-1.894-1.283-1.787-.432-2.8-.96-2.8-2.507V85.1c0-1.439 1.2-2.435 2.866-2.435a4.653 4.653 0 0 1 3.047 1.056l-.792 1.115a3.817 3.817 0 0 0-2.275-.868c-.864 0-1.367.443-1.367.995v.024c0 .648.384.936 2 1.32 1.775.431 2.687 1.067 2.687 2.458v.024c0 1.571-1.236 2.507-3 2.507a5.171 5.171 0 0 1-3.497-1.344z"/><path class="cls-3" d="M643.179 174.316h29.16v2.033h-29.16z"/><path class="cls-3" d="M671.449 178.374l5.266-3.041-5.266-3.042v6.083zM570.441 174.316h18.04v2.033h-18.04z"/><path d="M592.54 170.414h6.225v1.319h-4.749v2.183h4.21v1.319h-4.21v2.255h4.809v1.319h-6.285zM599.86 170.414h1.632l2.53 6.452 2.519-6.452h1.6l-3.479 8.455h-1.307zM609.58 170.414h6.22v1.319h-4.749v2.183h4.21v1.319h-4.21v2.255h4.809v1.319h-6.28zM617.62 170.414h1.367l4.5 5.8v-5.8h1.452v8.4H623.7l-4.63-5.973v5.973h-1.45zM629.163 171.781H626.5v-1.367h6.812v1.367h-2.662v7.028h-1.487zM634.133 177.585l.888-1.054a3.889 3.889 0 0 0 2.65 1.091c.911 0 1.487-.432 1.487-1.056v-.024c0-.6-.336-.923-1.894-1.283-1.787-.431-2.795-.96-2.795-2.507v-.024c0-1.438 1.2-2.435 2.866-2.435a4.659 4.659 0 0 1 3.047 1.056l-.792 1.115a3.817 3.817 0 0 0-2.278-.863c-.865 0-1.368.443-1.368 1v.025c0 .647.384.935 2 1.319 1.775.432 2.687 1.067 2.687 2.458v.024c0 1.572-1.236 2.507-3 2.507a5.171 5.171 0 0 1-3.498-1.349z"/><path class="cls-3" d="M643.179 216.385h29.16v2.033h-29.16z"/><path class="cls-3" d="M671.449 220.443l5.266-3.041-5.266-3.042v6.083zM548.441 216.385h40.04v2.033h-40.04z"/><path d="M592.54 212.482h6.225v1.32h-4.749v2.182h4.21v1.32h-4.21v2.255h4.809v1.319h-6.285zM599.86 212.482h1.632l2.53 6.453 2.519-6.453h1.6l-3.479 8.456h-1.307zM609.58 212.482h6.22v1.32h-4.749v2.182h4.21v1.32h-4.21v2.255h4.809v1.319h-6.28zM617.62 212.482h1.367l4.5 5.805v-5.805h1.452v8.4H623.7l-4.63-5.973v5.973h-1.45zM629.163 213.85H626.5v-1.368h6.812v1.368h-2.662v7.028h-1.487zM634.133 219.654l.888-1.054a3.888 3.888 0 0 0 2.65 1.09c.911 0 1.487-.431 1.487-1.055v-.024c0-.6-.336-.923-1.894-1.283-1.787-.432-2.795-.96-2.795-2.507v-.021c0-1.439 1.2-2.435 2.866-2.435a4.653 4.653 0 0 1 3.047 1.056l-.792 1.115a3.817 3.817 0 0 0-2.278-.863c-.865 0-1.368.443-1.368 1v.024c0 .648.384.936 2 1.32 1.775.431 2.687 1.067 2.687 2.458v.024c0 1.571-1.236 2.507-3 2.507a5.171 5.171 0 0 1-3.498-1.352z"/><path class="cls-3" d="M643.179 129.481h29.16v2.033h-29.16z"/><path class="cls-3" d="M671.449 133.539l5.266-3.041-5.266-3.041v6.082zM559.441 129.481h29.04v2.033h-29.04z"/><path d="M592.54 125.579h6.225v1.321h-4.749v2.183h4.21v1.317h-4.21v2.255h4.809v1.32h-6.285zM599.86 125.579h1.632l2.53 6.452 2.519-6.452h1.6l-3.479 8.455h-1.307zM609.58 125.579h6.22v1.321h-4.749v2.183h4.21v1.317h-4.21v2.255h4.809v1.32h-6.28zM617.62 125.579h1.367l4.5 5.8v-5.8h1.452v8.4H623.7L619.071 128v5.973h-1.451zM629.163 126.946H626.5v-1.367h6.812v1.367h-2.662v7.029h-1.487zM634.133 132.751l.888-1.055a3.884 3.884 0 0 0 2.65 1.091c.911 0 1.487-.432 1.487-1.056v-.023c0-.6-.336-.924-1.894-1.283-1.787-.432-2.795-.96-2.795-2.507v-.024c0-1.439 1.2-2.435 2.866-2.435a4.653 4.653 0 0 1 3.047 1.056l-.792 1.115a3.81 3.81 0 0 0-2.278-.863c-.865 0-1.368.443-1.368 1v.024c0 .648.384.936 2 1.319 1.775.432 2.687 1.068 2.687 2.458v.025c0 1.571-1.236 2.507-3 2.507a5.176 5.176 0 0 1-3.498-1.349z"/><path class="cls-3" d="M643.179 86.683h29.16v2.033h-29.16z"/><path class="cls-3" d="M671.449 90.741l5.266-3.041-5.266-3.041v6.082zM509.441 86.683h79.04v2.033h-79.04z"/><path d="M592.54 82.78h6.225v1.32h-4.749v2.182h4.21V87.6h-4.21v2.254h4.809v1.32h-6.285zM599.86 82.78h1.632l2.53 6.452 2.519-6.452h1.6l-3.479 8.455h-1.307zM609.58 82.78h6.22v1.32h-4.749v2.182h4.21V87.6h-4.21v2.254h4.809v1.32h-6.28zM617.62 82.78h1.367l4.5 5.8v-5.8h1.452v8.4H623.7l-4.63-5.973v5.973h-1.45zM629.163 84.147H626.5V82.78h6.812v1.367h-2.662v7.029h-1.487zM634.133 89.952l.888-1.055a3.884 3.884 0 0 0 2.65 1.091c.911 0 1.487-.431 1.487-1.055v-.024c0-.6-.336-.924-1.894-1.283-1.787-.432-2.795-.96-2.795-2.507V85.1c0-1.439 1.2-2.435 2.866-2.435a4.653 4.653 0 0 1 3.047 1.056l-.792 1.115a3.817 3.817 0 0 0-2.278-.863c-.865 0-1.368.443-1.368.995v.024c0 .648.384.936 2 1.32 1.775.431 2.687 1.067 2.687 2.458v.024c0 1.571-1.236 2.507-3 2.507a5.171 5.171 0 0 1-3.498-1.349z"/><path class="cls-4" transform="rotate(90 88.8 86.813)" d="M71.852 40.93h33.896v91.767H71.852z"/><path class="cls-3" d="M135.865 104.943h-94.13V68.684h94.13zM44.1 102.58h89.4V71.047H44.1z"/><path class="cls-2" d="M53.546 79h-2.218v-1.135H57V79h-2.214v5.857h-1.24zM58.307 77.865h3.118a2.816 2.816 0 0 1 2.019.7 2.112 2.112 0 0 1 .58 1.509v.02a2.1 2.1 0 0 1-1.659 2.119l1.889 2.648H62.8l-1.719-2.438h-1.544v2.438h-1.23zm3.028 3.468c.88 0 1.44-.459 1.44-1.169v-.02c0-.749-.54-1.16-1.449-1.16h-1.789v2.349zM68.016 77.815h1.139l3.078 7.046h-1.3l-.709-1.689h-3.307l-.72 1.689h-1.259zm1.759 4.268l-1.21-2.8-1.2 2.8zM73.437 77.865h1.14l3.747 4.835v-4.835h1.21v7H78.5l-3.858-4.977v4.977h-1.205zM80.867 83.842l.74-.88a3.237 3.237 0 0 0 2.208.91c.76 0 1.24-.36 1.24-.88v-.02c0-.5-.28-.769-1.579-1.069-1.489-.36-2.329-.8-2.329-2.089v-.02a2.14 2.14 0 0 1 2.389-2.029 3.875 3.875 0 0 1 2.538.88l-.659.929a3.179 3.179 0 0 0-1.9-.72c-.72 0-1.14.371-1.14.83v.02c0 .54.32.78 1.669 1.1 1.48.36 2.239.889 2.239 2.049v.02c0 1.309-1.029 2.088-2.5 2.088a4.313 4.313 0 0 1-2.916-1.119zM90.065 77.815h1.14l3.078 7.046h-1.3l-.71-1.689h-3.307l-.719 1.689h-1.26zm1.76 4.268l-1.21-2.8-1.2 2.8zM94.737 81.383v-.02a3.541 3.541 0 0 1 3.608-3.618 3.647 3.647 0 0 1 2.738 1.089l-.789.91a2.785 2.785 0 0 0-1.959-.869 2.355 2.355 0 0 0-2.309 2.468v.02a2.358 2.358 0 0 0 2.309 2.479 2.732 2.732 0 0 0 2.009-.9l.79.8a3.614 3.614 0 0 1-2.839 1.24 3.519 3.519 0 0 1-3.558-3.599zM104.146 79h-2.219v-1.135h5.673V79h-2.219v5.857h-1.239zM108.977 77.865h1.229v7h-1.229zM111.767 81.383v-.02a3.658 3.658 0 0 1 7.316-.02v.02a3.658 3.658 0 0 1-7.316.02zm6.026 0v-.02a2.4 2.4 0 0 0-2.378-2.488 2.364 2.364 0 0 0-2.359 2.468v.02a2.389 2.389 0 0 0 2.379 2.479 2.355 2.355 0 0 0 2.358-2.459zM120.577 77.865h1.139l3.748 4.838v-4.838h1.209v7h-1.029l-3.858-4.977v4.977h-1.209zM64.672 88.866h3.118a2.817 2.817 0 0 1 2.019.7 2.115 2.115 0 0 1 .58 1.509v.02a2.1 2.1 0 0 1-1.66 2.119l1.89 2.649H69.16l-1.72-2.439H65.9v2.439h-1.228zm3.028 3.468c.88 0 1.44-.46 1.44-1.169v-.02c0-.75-.54-1.16-1.45-1.16H65.9v2.349zM71.9 88.866h5.187v1.1h-3.956v1.819h3.508v1.1h-3.508v1.879h4.008v1.1H71.9zM78.292 92.384v-.02a3.54 3.54 0 0 1 3.608-3.618 3.644 3.644 0 0 1 2.738 1.089l-.789.91a2.784 2.784 0 0 0-1.959-.87 2.356 2.356 0 0 0-2.309 2.469v.02a2.357 2.357 0 0 0 2.309 2.478 2.735 2.735 0 0 0 2.009-.9l.789.8a3.612 3.612 0 0 1-2.838 1.239 3.518 3.518 0 0 1-3.558-3.597zM85.472 92.384v-.02a3.658 3.658 0 0 1 7.316-.02v.02a3.658 3.658 0 0 1-7.316.02zm6.027 0v-.02a2.4 2.4 0 0 0-2.379-2.489 2.364 2.364 0 0 0-2.359 2.469v.02a2.389 2.389 0 0 0 2.379 2.478 2.355 2.355 0 0 0 2.36-2.458zM94.282 88.866H97.4a2.817 2.817 0 0 1 2.019.7 2.115 2.115 0 0 1 .58 1.509v.02a2.1 2.1 0 0 1-1.659 2.119l1.889 2.649H98.77l-1.72-2.439h-1.539v2.439h-1.229zm3.028 3.468c.879 0 1.44-.46 1.44-1.169v-.02c0-.75-.541-1.16-1.45-1.16h-1.789v2.349zM101.512 88.866h2.609a3.487 3.487 0 0 1 3.717 3.478v.02a3.5 3.5 0 0 1-3.717 3.5h-2.609zm1.229 1.119v4.758h1.38a2.281 2.281 0 0 0 2.428-2.359v-.02a2.3 2.3 0 0 0-2.428-2.379zM108.762 94.842l.739-.879a3.246 3.246 0 0 0 2.209.91c.76 0 1.24-.36 1.24-.88v-.02c0-.5-.281-.77-1.58-1.07-1.489-.36-2.328-.8-2.328-2.089v-.02a2.139 2.139 0 0 1 2.388-2.028 3.882 3.882 0 0 1 2.539.879l-.66.93a3.174 3.174 0 0 0-1.9-.72c-.719 0-1.139.37-1.139.83v.02c0 .539.32.779 1.669 1.1 1.479.36 2.239.889 2.239 2.049v.02c0 1.309-1.03 2.089-2.5 2.089a4.309 4.309 0 0 1-2.916-1.121z"/><path class="cls-4" transform="rotate(90 88.8 129.8)" d="M71.852 83.917h33.896v91.767H71.852z"/><path class="cls-3" d="M135.7 147.765H41.9v-35.929h93.8zm-91.767-2.033h89.734v-31.863H43.933z"/><path class="cls-2" d="M66.707 126.806h1.23v7h-1.23zM69.377 131.194v-.02a2.814 2.814 0 0 1 5.627-.02v.02a2.759 2.759 0 0 1-2.828 2.749 2.73 2.73 0 0 1-2.799-2.729zm4.418 0v-.02a1.631 1.631 0 0 0-1.619-1.7 1.584 1.584 0 0 0-1.589 1.679v.02a1.626 1.626 0 0 0 1.609 1.689 1.584 1.584 0 0 0 1.604-1.668zM78.1 127.945h-2.223v-1.139h5.677v1.139h-2.219v5.855H78.1zM85.857 126.806h2.609a3.487 3.487 0 0 1 3.718 3.478v.02a3.5 3.5 0 0 1-3.718 3.5h-2.609zm1.229 1.119v4.758h1.38a2.28 2.28 0 0 0 2.428-2.359v-.02a2.3 2.3 0 0 0-2.428-2.379zM95.666 126.756h1.139l3.078 7.046h-1.3l-.709-1.689h-3.308l-.719 1.689h-1.26zm1.759 4.268l-1.21-2.8-1.2 2.8zM101.906 127.945h-2.218v-1.139h5.676v1.139h-2.218v5.855h-1.24zM108.245 126.756h1.14l3.078 7.046h-1.3l-.71-1.689h-3.308l-.72 1.689h-1.259zm1.755 4.268l-1.209-2.8-1.2 2.8z"/><path class="cls-4" transform="rotate(90 88.8 172.788)" d="M71.852 126.905h33.896v91.767H71.852z"/><path class="cls-3" d="M135.683 190.736H41.917v-35.9h93.766zm-91.766-2h89.766v-31.9H43.917z"/><path class="cls-2" d="M64.322 164.86h3.138a2.531 2.531 0 0 1 1.83.619 1.567 1.567 0 0 1 .469 1.16v.02a1.665 1.665 0 0 1-1 1.559 1.715 1.715 0 0 1 1.389 1.7v.02c0 1.25-1.029 1.919-2.588 1.919h-3.238zm4.208 1.979c0-.55-.44-.89-1.229-.89h-1.769v1.859h1.679c.789 0 1.319-.309 1.319-.949zm-1.05 2.009h-1.948v1.919h2.039c.839 0 1.349-.33 1.349-.96v-.02c0-.587-.47-.939-1.44-.939zM71.432 168.888v-4.028h1.23v3.977c0 1.3.669 1.99 1.769 1.99s1.758-.65 1.758-1.939v-4.028h1.23v3.968a2.794 2.794 0 0 1-3.008 3.138 2.758 2.758 0 0 1-2.979-3.078zM78.642 170.836l.74-.879a3.237 3.237 0 0 0 2.208.91c.76 0 1.24-.36 1.24-.88v-.02c0-.5-.28-.77-1.579-1.07-1.489-.359-2.329-.8-2.329-2.088v-.02a2.139 2.139 0 0 1 2.389-2.029 3.879 3.879 0 0 1 2.538.879l-.66.93a3.174 3.174 0 0 0-1.9-.72c-.72 0-1.14.37-1.14.83v.02c0 .539.32.78 1.669 1.1 1.48.36 2.239.89 2.239 2.049v.02c0 1.309-1.029 2.089-2.5 2.089a4.309 4.309 0 0 1-2.915-1.121zM85.582 164.86h1.23v7h-1.23zM88.682 164.86h1.139l3.748 4.837v-4.837h1.209v7h-1.029l-3.858-4.977v4.977h-1.209zM96.582 164.86h5.187v1.1h-3.957v1.819h3.507v1.1h-3.507v1.879h4.007v1.1h-5.237zM102.812 170.836l.74-.879a3.237 3.237 0 0 0 2.208.91c.76 0 1.24-.36 1.24-.88v-.02c0-.5-.28-.77-1.579-1.07-1.489-.359-2.329-.8-2.329-2.088v-.02a2.139 2.139 0 0 1 2.388-2.029 3.88 3.88 0 0 1 2.539.879l-.66.93a3.174 3.174 0 0 0-1.9-.72c-.719 0-1.139.37-1.139.83v.02c0 .539.32.78 1.669 1.1 1.48.36 2.239.89 2.239 2.049v.02c0 1.309-1.029 2.089-2.5 2.089a4.309 4.309 0 0 1-2.916-1.121zM109.112 170.836l.74-.879a3.238 3.238 0 0 0 2.209.91c.759 0 1.239-.36 1.239-.88v-.02c0-.5-.28-.77-1.579-1.07-1.489-.359-2.329-.8-2.329-2.088v-.02a2.14 2.14 0 0 1 2.389-2.029 3.879 3.879 0 0 1 2.538.879l-.659.93a3.179 3.179 0 0 0-1.9-.72c-.719 0-1.139.37-1.139.83v.02c0 .539.319.78 1.669 1.1 1.479.36 2.238.89 2.238 2.049v.02c0 1.309-1.029 2.089-2.5 2.089a4.309 4.309 0 0 1-2.916-1.121zM67.132 175.86h1.309l2.129 3.308 2.13-3.308h1.309v7h-1.23v-5.017l-2.209 3.3h-.04l-2.189-3.278v5h-1.209zM75.812 175.86H81v1.1h-3.958v1.82h3.507v1.1h-3.507v1.879h4.007v1.1h-5.237zM84.231 177h-2.219v-1.14h5.677V177H85.47v5.856h-1.239zM88.992 175.86h3.118a2.818 2.818 0 0 1 2.019.7 2.111 2.111 0 0 1 .579 1.509v.02a2.1 2.1 0 0 1-1.658 2.119l1.888 2.648h-1.459l-1.719-2.438h-1.539v2.438h-1.229zm3.028 3.469c.879 0 1.439-.46 1.439-1.17v-.02c0-.749-.54-1.16-1.449-1.16h-1.789v2.35zM96.292 175.86h1.229v7h-1.229zM99.082 179.378v-.02a3.541 3.541 0 0 1 3.608-3.618 3.644 3.644 0 0 1 2.738 1.09l-.789.909a2.787 2.787 0 0 0-1.959-.869 2.355 2.355 0 0 0-2.309 2.468v.02a2.357 2.357 0 0 0 2.309 2.479 2.735 2.735 0 0 0 2.009-.9l.79.8a3.611 3.611 0 0 1-2.839 1.24 3.519 3.519 0 0 1-3.558-3.599zM106.3 181.837l.74-.879a3.241 3.241 0 0 0 2.208.909c.76 0 1.24-.36 1.24-.88v-.02c0-.5-.281-.769-1.58-1.069-1.489-.36-2.328-.8-2.328-2.089v-.02a2.14 2.14 0 0 1 2.388-2.029 3.877 3.877 0 0 1 2.539.88l-.66.929a3.179 3.179 0 0 0-1.9-.719c-.719 0-1.139.37-1.139.829v.02c0 .54.32.78 1.669 1.1 1.479.36 2.239.889 2.239 2.049v.02c0 1.309-1.03 2.089-2.5 2.089a4.314 4.314 0 0 1-2.916-1.12z"/><path class="cls-4" transform="rotate(90 88.8 215.775)" d="M71.852 169.892h33.896v91.767H71.852z"/><path class="cls-3" d="M135.7 233.74H41.9v-35.929h93.8zm-91.767-2.033h89.734v-31.863H43.933z"/><path class="cls-2" d="M51.718 211.365v-.02a3.658 3.658 0 0 1 7.316-.02v.02a3.658 3.658 0 0 1-7.316.02zm6.026 0v-.02a2.4 2.4 0 0 0-2.378-2.489 2.365 2.365 0 0 0-2.359 2.469v.02a2.389 2.389 0 0 0 2.379 2.479 2.355 2.355 0 0 0 2.358-2.459zM60.527 207.847h2.759a2.348 2.348 0 0 1 2.658 2.339v.02c0 1.569-1.259 2.389-2.8 2.389h-1.387v2.248h-1.23zm2.659 3.638c.929 0 1.509-.52 1.509-1.249v-.02c0-.82-.59-1.25-1.509-1.25h-1.429v2.519zM67.207 207.847h5.187v1.1h-3.957v1.82h3.507v1.1h-3.507v1.879h4.007v1.1h-5.237zM73.907 207.847h3.118a2.816 2.816 0 0 1 2.019.7 2.112 2.112 0 0 1 .58 1.509v.02a2.1 2.1 0 0 1-1.659 2.119l1.889 2.648H78.4l-1.719-2.438h-1.544v2.438h-1.23zm3.029 3.468c.879 0 1.439-.46 1.439-1.169v-.02c0-.75-.54-1.16-1.449-1.16h-1.789v2.349zM83.616 207.8h1.139l3.078 7.046h-1.3l-.709-1.689h-3.307l-.72 1.689h-1.259zm1.759 4.268l-1.209-2.8-1.2 2.8zM89.856 208.986h-2.218v-1.139h5.676v1.139H91.1v5.857h-1.24zM94.687 207.847h1.23v7h-1.23zM97.478 211.365v-.02a3.658 3.658 0 0 1 7.315-.02v.02a3.658 3.658 0 0 1-7.315.02zm6.026 0v-.02a2.4 2.4 0 0 0-2.379-2.489 2.364 2.364 0 0 0-2.358 2.469v.02a2.388 2.388 0 0 0 2.379 2.479 2.355 2.355 0 0 0 2.354-2.459zM106.287 207.847h1.139l3.748 4.838v-4.838h1.209v7h-1.029l-3.858-4.977v4.977h-1.209zM116.665 207.8h1.14l3.078 7.046h-1.3l-.709-1.689h-3.308l-.72 1.689h-1.259zm1.759 4.268l-1.209-2.8-1.2 2.8zM122.087 207.847h1.229v5.877h3.678v1.119h-4.907zM67.132 218.848h1.309l2.129 3.308 2.129-3.308h1.309v7h-1.229v-5.017l-2.209 3.3h-.04l-2.189-3.278v5h-1.209zM75.812 218.848H81v1.1h-3.958v1.819h3.507v1.1h-3.507v1.879h4.007v1.1h-5.237zM84.231 219.987h-2.219v-1.139h5.677v1.139H85.47v5.857h-1.239zM88.992 218.848h3.118a2.817 2.817 0 0 1 2.019.7 2.114 2.114 0 0 1 .579 1.509v.02a2.1 2.1 0 0 1-1.658 2.123l1.888 2.649h-1.459l-1.719-2.439h-1.539v2.439h-1.229zm3.028 3.468c.879 0 1.439-.46 1.439-1.17v-.02c0-.749-.54-1.159-1.449-1.159h-1.789v2.349zM96.292 218.848h1.229v7h-1.229zM99.082 222.366v-.02a3.54 3.54 0 0 1 3.608-3.618 3.644 3.644 0 0 1 2.738 1.089l-.789.91a2.784 2.784 0 0 0-1.959-.87 2.356 2.356 0 0 0-2.309 2.469v.02a2.357 2.357 0 0 0 2.309 2.478 2.735 2.735 0 0 0 2.009-.9l.79.8a3.614 3.614 0 0 1-2.839 1.239 3.518 3.518 0 0 1-3.558-3.597zM106.3 224.824l.74-.879a3.241 3.241 0 0 0 2.208.909c.76 0 1.24-.359 1.24-.879v-.02c0-.5-.281-.77-1.58-1.07-1.489-.36-2.328-.8-2.328-2.089v-.02a2.139 2.139 0 0 1 2.388-2.028 3.882 3.882 0 0 1 2.539.879l-.66.93a3.174 3.174 0 0 0-1.9-.72c-.719 0-1.139.37-1.139.83v.02c0 .539.32.779 1.669 1.1 1.479.36 2.239.889 2.239 2.049v.02c0 1.309-1.03 2.089-2.5 2.089a4.309 4.309 0 0 1-2.916-1.121z"/><path class="cls-4" transform="rotate(90 730.511 86.813)" d="M713.563 40.93h33.896v91.767h-33.896z"/><path class="cls-3" d="M777.575 104.943h-94.129V68.684h94.129zm-91.765-2.363h89.4V71.047h-89.4z"/><path class="cls-2" d="M717.958 77.865h2.609a3.488 3.488 0 0 1 3.718 3.478v.02a3.5 3.5 0 0 1-3.718 3.5h-2.609zm1.23 1.119v4.758h1.379A2.28 2.28 0 0 0 723 81.383v-.02a2.3 2.3 0 0 0-2.428-2.379zM727.767 77.815h1.139l3.078 7.046h-1.3l-.71-1.689h-3.308l-.72 1.689h-1.26zm1.759 4.268l-1.21-2.8-1.2 2.8zM734.008 79h-2.219v-1.135h5.677V79h-2.219v5.857h-1.239zM740.347 77.815h1.139l3.078 7.046h-1.3l-.71-1.689h-3.308l-.72 1.689h-1.259zm1.759 4.268l-1.21-2.8-1.2 2.8zM697.094 88.866h1.329l1.669 5.187 1.719-5.207h1.04l1.718 5.207 1.669-5.187h1.289l-2.427 7.046h-1.07l-1.718-5.027-1.719 5.027h-1.06zM710.371 88.816h1.14l3.078 7.046h-1.3l-.71-1.689h-3.308l-.719 1.689h-1.26zm1.76 4.267l-1.21-2.8-1.2 2.8zM715.793 88.866h3.118a2.822 2.822 0 0 1 2.02.7 2.119 2.119 0 0 1 .579 1.509v.02a2.1 2.1 0 0 1-1.659 2.119l1.889 2.649h-1.459l-1.719-2.439h-1.54v2.439h-1.229zm3.028 3.468c.88 0 1.44-.46 1.44-1.169v-.02c0-.75-.54-1.16-1.449-1.16h-1.79v2.349zM723.022 88.866h5.188v1.1h-3.958v1.819h3.508v1.1h-3.508v1.879h4.008v1.1h-5.238zM729.723 88.866h1.229v2.908h3.338v-2.908h1.23v7h-1.23v-2.952h-3.338v2.948h-1.229zM737.014 92.384v-.02a3.658 3.658 0 0 1 7.315-.02v.02a3.658 3.658 0 0 1-7.315.02zm6.026 0v-.02a2.4 2.4 0 0 0-2.379-2.489 2.363 2.363 0 0 0-2.358 2.469v.02a2.388 2.388 0 0 0 2.379 2.478 2.355 2.355 0 0 0 2.358-2.458zM745.713 92.894v-4.028h1.229v3.977c0 1.3.669 1.99 1.769 1.99s1.759-.65 1.759-1.939v-4.028h1.23v3.967a2.794 2.794 0 0 1-3.008 3.139 2.758 2.758 0 0 1-2.979-3.078zM752.923 94.842l.74-.879a3.242 3.242 0 0 0 2.208.91c.76 0 1.24-.36 1.24-.88v-.02c0-.5-.28-.77-1.58-1.07-1.488-.36-2.328-.8-2.328-2.089v-.02a2.139 2.139 0 0 1 2.389-2.028 3.879 3.879 0 0 1 2.538.879l-.659.93a3.179 3.179 0 0 0-1.9-.72c-.718 0-1.138.37-1.138.83v.02c0 .539.319.779 1.669 1.1 1.479.36 2.238.889 2.238 2.049v.02c0 1.309-1.029 2.089-2.5 2.089a4.309 4.309 0 0 1-2.917-1.121zM759.793 88.866h5.186v1.1h-3.957v1.819h3.508v1.1h-3.508v1.879h4.008v1.1h-5.237z"/><path class="cls-4" transform="rotate(90 730.51 129.8)" d="M713.563 83.917h33.896v91.767h-33.896z"/><path class="cls-3" d="M777.41 147.765h-93.8v-35.929h93.8zm-91.765-2.033h89.732v-31.863h-89.732z"/><path class="cls-2" d="M709.889 121h5.186v1.1h-3.957v1.819h3.508v1.1h-3.508v1.881h4.008v1.1h-5.237zM716.589 121h1.229v5.876h3.682V128h-4.907zM725.257 120.949h1.143l3.075 7.051h-1.3l-.709-1.689h-3.309l-.719 1.689h-1.259zm1.759 4.267l-1.209-2.8-1.2 2.8zM730.089 126.975l.739-.879a3.245 3.245 0 0 0 2.209.909c.76 0 1.239-.359 1.239-.88v-.02c0-.5-.28-.769-1.579-1.069-1.489-.36-2.329-.8-2.329-2.089v-.02a2.141 2.141 0 0 1 2.389-2.029 3.879 3.879 0 0 1 2.539.88l-.66.93a3.174 3.174 0 0 0-1.9-.72c-.719 0-1.139.37-1.139.829v.02c0 .54.32.78 1.669 1.1 1.479.36 2.239.889 2.239 2.049v.02c0 1.309-1.029 2.089-2.5 2.089a4.309 4.309 0 0 1-2.916-1.12zM738.527 122.138h-2.218V121h5.676v1.139h-2.218V128h-1.24zM743.358 121h1.23v7h-1.23zM746.148 124.517v-.02a3.542 3.542 0 0 1 3.609-3.619 3.646 3.646 0 0 1 2.738 1.09l-.79.909a2.783 2.783 0 0 0-1.959-.869 2.354 2.354 0 0 0-2.308 2.469v.02a2.356 2.356 0 0 0 2.308 2.478 2.739 2.739 0 0 0 2.01-.9l.789.8a3.609 3.609 0 0 1-2.838 1.24 3.52 3.52 0 0 1-3.559-3.598zM709.788 137.976l.74-.88a3.237 3.237 0 0 0 2.208.91c.76 0 1.241-.36 1.241-.88v-.02c0-.5-.281-.77-1.581-1.069-1.488-.36-2.328-.8-2.328-2.089v-.02a2.14 2.14 0 0 1 2.389-2.029 3.877 3.877 0 0 1 2.538.879l-.659.93a3.179 3.179 0 0 0-1.9-.72c-.719 0-1.139.37-1.139.83v.02c0 .539.319.78 1.669 1.1 1.479.359 2.238.889 2.238 2.048v.02c0 1.309-1.029 2.089-2.5 2.089a4.315 4.315 0 0 1-2.916-1.119zM716.658 132h5.187v1.1h-3.957v1.819h3.512v1.1h-3.508v1.881h4.008v1.1h-5.238zM725.837 131.949h1.14l3.078 7.051h-1.3l-.709-1.689h-3.309l-.719 1.689h-1.259zm1.759 4.268l-1.209-2.8-1.2 2.8zM731.258 132h3.118a2.822 2.822 0 0 1 2.02.7 2.115 2.115 0 0 1 .579 1.509v.02a2.1 2.1 0 0 1-1.66 2.119l1.89 2.648h-1.459l-1.72-2.438h-1.539V139h-1.229zm3.028 3.468c.88 0 1.44-.46 1.44-1.169v-.02c0-.75-.54-1.16-1.45-1.16h-1.789v2.349zM738.179 135.517v-.02a3.539 3.539 0 0 1 3.607-3.618 3.647 3.647 0 0 1 2.738 1.089l-.789.91a2.78 2.78 0 0 0-1.959-.87 2.355 2.355 0 0 0-2.308 2.469v.02a2.358 2.358 0 0 0 2.308 2.479 2.731 2.731 0 0 0 2.009-.9l.79.8a3.612 3.612 0 0 1-2.839 1.239 3.518 3.518 0 0 1-3.557-3.598zM745.868 132h1.23v2.908h3.338V132h1.229v7h-1.229v-2.948H747.1V139h-1.23z"/><path class="cls-4" transform="rotate(90 730.511 172.788)" d="M713.563 126.905h33.896v91.767h-33.896z"/><path class="cls-3" d="M777.41 190.752h-93.8v-35.929h93.8zm-91.765-2.033h89.732v-31.863h-89.732z"/><path class="cls-2" d="M709.773 170.836l.741-.879a3.235 3.235 0 0 0 2.208.91c.759 0 1.24-.36 1.24-.88v-.02c0-.5-.28-.77-1.58-1.07-1.488-.359-2.328-.8-2.328-2.088v-.02a2.139 2.139 0 0 1 2.388-2.029 3.877 3.877 0 0 1 2.538.879l-.659.93a3.177 3.177 0 0 0-1.9-.72c-.719 0-1.139.37-1.139.83v.02c0 .539.32.78 1.669 1.1 1.48.36 2.238.89 2.238 2.049v.02c0 1.309-1.029 2.089-2.5 2.089a4.311 4.311 0 0 1-2.916-1.121zM718.213 166h-2.219v-1.14h5.677V166h-2.219v5.857h-1.239zM722.974 164.86h3.118a2.813 2.813 0 0 1 2.018.7 2.111 2.111 0 0 1 .58 1.508v.02a2.1 2.1 0 0 1-1.659 2.12l1.889 2.648h-1.459l-1.719-2.439H724.2v2.439h-1.229zm3.026 3.468c.879 0 1.439-.46 1.439-1.169v-.02c0-.75-.54-1.16-1.449-1.16h-1.79v2.349zM730.2 164.86h5.188v1.1h-3.958v1.819h3.507v1.1h-3.507v1.879h4.007v1.1H730.2zM739.382 164.81h1.139l3.079 7.046h-1.3l-.709-1.689h-3.309l-.72 1.689H736.3zm1.759 4.268l-1.209-2.8-1.2 2.8zM744.8 164.86h1.309l2.129 3.308 2.129-3.308h1.31v7h-1.23v-5.017l-2.209 3.3h-.04l-2.188-3.278v5h-1.21zM697.813 175.86h2.759a2.348 2.348 0 0 1 2.658 2.339v.02c0 1.569-1.259 2.389-2.8 2.389h-1.389v2.248h-1.23zm2.659 3.638c.929 0 1.509-.519 1.509-1.249v-.02c0-.819-.589-1.25-1.509-1.25h-1.429v2.521zM704.493 175.86h3.118a2.82 2.82 0 0 1 2.02.7 2.115 2.115 0 0 1 .579 1.509v.02a2.1 2.1 0 0 1-1.659 2.119l1.889 2.648h-1.459l-1.719-2.438h-1.539v2.438h-1.23zm3.028 3.469c.88 0 1.44-.46 1.44-1.17v-.02c0-.749-.54-1.16-1.449-1.16h-1.789v2.35zM711.413 179.378v-.02a3.658 3.658 0 0 1 7.316-.02v.02a3.658 3.658 0 0 1-7.316.02zm6.026 0v-.02a2.4 2.4 0 0 0-2.377-2.488 2.364 2.364 0 0 0-2.36 2.468v.02a2.389 2.389 0 0 0 2.379 2.479 2.354 2.354 0 0 0 2.358-2.459zM719.913 179.378v-.02a3.541 3.541 0 0 1 3.608-3.618 3.646 3.646 0 0 1 2.739 1.09l-.79.909a2.785 2.785 0 0 0-1.959-.869 2.355 2.355 0 0 0-2.309 2.468v.02a2.357 2.357 0 0 0 2.309 2.479 2.739 2.739 0 0 0 2.01-.9l.789.8a3.611 3.611 0 0 1-2.838 1.24 3.52 3.52 0 0 1-3.559-3.599zM727.6 175.86h5.187v1.1h-3.958v1.82h3.508v1.1h-3.508v1.879h4.008v1.1H727.6zM733.833 181.837l.74-.879a3.241 3.241 0 0 0 2.208.909c.76 0 1.24-.36 1.24-.88v-.02c0-.5-.28-.769-1.58-1.069-1.488-.36-2.328-.8-2.328-2.089v-.02a2.14 2.14 0 0 1 2.389-2.029 3.875 3.875 0 0 1 2.538.88l-.659.929a3.184 3.184 0 0 0-1.9-.719c-.718 0-1.138.37-1.138.829v.02c0 .54.319.78 1.669 1.1 1.479.36 2.238.889 2.238 2.049v.02c0 1.309-1.029 2.089-2.5 2.089a4.316 4.316 0 0 1-2.917-1.12zM740.133 181.837l.74-.879a3.241 3.241 0 0 0 2.208.909c.76 0 1.24-.36 1.24-.88v-.02c0-.5-.28-.769-1.58-1.069-1.488-.36-2.328-.8-2.328-2.089v-.02a2.14 2.14 0 0 1 2.389-2.029 3.875 3.875 0 0 1 2.538.88l-.659.929a3.184 3.184 0 0 0-1.9-.719c-.719 0-1.138.37-1.138.829v.02c0 .54.319.78 1.669 1.1 1.479.36 2.238.889 2.238 2.049v.02c0 1.309-1.029 2.089-2.5 2.089a4.314 4.314 0 0 1-2.917-1.12zM747.073 175.86h1.23v7h-1.23zM750.173 175.86h1.139l3.749 4.838v-4.838h1.209v7h-1.03l-3.857-4.977v4.977h-1.21zM757.764 179.378v-.02a3.564 3.564 0 0 1 3.607-3.618 3.777 3.777 0 0 1 2.689.95l-.78.929a2.743 2.743 0 0 0-1.959-.749 2.366 2.366 0 0 0-2.268 2.468v.02a2.337 2.337 0 0 0 2.379 2.5 2.854 2.854 0 0 0 1.688-.53v-1.309h-1.789v-1.069h2.979v2.938a4.46 4.46 0 0 1-2.918 1.09 3.471 3.471 0 0 1-3.628-3.6z"/><path class="cls-4" transform="rotate(90 730.511 215.775)" d="M713.563 169.892h33.896v91.767h-33.896z"/><path class="cls-3" d="M777.41 233.74h-93.8v-35.929h93.8zm-91.765-2.033h89.732v-31.863h-89.732z"/><path class="cls-2" d="M703.948 207.847h3.118a2.82 2.82 0 0 1 2.02.7 2.115 2.115 0 0 1 .579 1.509v.02a2.1 2.1 0 0 1-1.659 2.119l1.89 2.648h-1.459l-1.72-2.438h-1.539v2.438h-1.23zm3.029 3.468c.879 0 1.439-.46 1.439-1.169v-.02c0-.75-.54-1.16-1.449-1.16h-1.789v2.349zM711.179 207.847h5.186v1.1h-3.957v1.82h3.508v1.1h-3.508v1.879h4.008v1.1h-5.237zM720.356 207.8h1.14l3.078 7.046h-1.3l-.71-1.689h-3.307l-.72 1.689h-1.26zm1.76 4.268l-1.21-2.8-1.2 2.8zM725.778 207.847h1.23v5.877h3.678v1.119h-4.908zM731.229 211.185h2.958v1.19h-2.958zM736.468 208.986h-2.219v-1.139h5.677v1.139h-2.219v5.857h-1.239zM741.3 207.847h1.229v7H741.3zM744.4 207.847h1.31l2.128 3.308 2.129-3.308h1.309v7h-1.229v-5.017l-2.209 3.3h-.038l-2.19-3.278v5h-1.21zM753.078 207.847h5.187v1.1h-3.957v1.82h3.507v1.1h-3.507v1.879h4.007v1.1h-5.237zM695.617 218.8h1.14l3.078 7.046h-1.3l-.709-1.689h-3.308l-.72 1.689h-1.259zm1.759 4.267l-1.209-2.8-1.2 2.8zM701.038 218.848h2.762a2.348 2.348 0 0 1 2.658 2.339v.019c0 1.569-1.259 2.389-2.8 2.389h-1.389v2.249h-1.23zm2.659 3.637c.929 0 1.509-.519 1.509-1.249v-.02c0-.819-.59-1.249-1.509-1.249h-1.429v2.518zM707.719 218.848h2.759a2.348 2.348 0 0 1 2.658 2.339v.019c0 1.569-1.26 2.389-2.8 2.389h-1.389v2.249h-1.229zm2.658 3.637c.93 0 1.51-.519 1.51-1.249v-.02c0-.819-.59-1.249-1.51-1.249h-1.429v2.518zM714.4 218.848h1.23v5.877h3.678v1.119H714.4zM720.658 218.848h1.23v7h-1.23zM723.448 222.366v-.02a3.541 3.541 0 0 1 3.609-3.618 3.645 3.645 0 0 1 2.738 1.089l-.79.91a2.782 2.782 0 0 0-1.959-.87 2.356 2.356 0 0 0-2.309 2.469v.02a2.357 2.357 0 0 0 2.309 2.478 2.739 2.739 0 0 0 2.01-.9l.789.8a3.613 3.613 0 0 1-2.838 1.239 3.519 3.519 0 0 1-3.559-3.597zM733.616 218.8h1.14l3.078 7.046h-1.3l-.71-1.689h-3.307l-.72 1.689h-1.26zm1.76 4.267l-1.21-2.8-1.2 2.8zM739.857 219.987h-2.218v-1.139h5.676v1.139H741.1v5.857h-1.24zM744.688 218.848h1.229v7h-1.229zM747.479 222.366v-.02a3.658 3.658 0 0 1 7.315-.02v.02a3.658 3.658 0 0 1-7.315.02zm6.026 0v-.02a2.4 2.4 0 0 0-2.379-2.489 2.363 2.363 0 0 0-2.358 2.469v.02a2.388 2.388 0 0 0 2.378 2.478 2.355 2.355 0 0 0 2.359-2.458zM756.288 218.848h1.14l3.747 4.837v-4.837h1.21v7h-1.03l-3.858-4.977v4.977h-1.209zM763.718 224.824l.74-.879a3.241 3.241 0 0 0 2.208.909c.76 0 1.24-.359 1.24-.879v-.02c0-.5-.28-.77-1.58-1.07-1.488-.36-2.328-.8-2.328-2.089v-.02a2.139 2.139 0 0 1 2.389-2.028 3.879 3.879 0 0 1 2.538.879l-.659.93a3.179 3.179 0 0 0-1.9-.72c-.719 0-1.138.37-1.138.83v.02c0 .539.319.779 1.668 1.1 1.48.36 2.239.889 2.239 2.049v.02c0 1.309-1.03 2.089-2.5 2.089a4.309 4.309 0 0 1-2.917-1.121zM325.676 133.762h10.382v2.2h-7.922v3.638h7.021v2.2h-7.021v3.761h8.021v2.2h-10.481zM337.876 133.762h2.72l4.221 10.762 4.2-10.762h2.661l-5.8 14.1H343.7zM354.076 133.762h10.382v2.2h-7.922v3.638h7.022v2.2h-7.022v3.761h8.022v2.2h-10.482zM367.476 133.762h2.28l7.5 9.682v-9.682h2.421v14h-2.061L369.9 137.8v9.962h-2.42zM386.716 136.042h-4.442v-2.28h11.364v2.28H389.2v11.723h-2.48zM401.3 145.724l1.48-1.76a6.486 6.486 0 0 0 4.421 1.82c1.521 0 2.481-.72 2.481-1.76v-.04c0-1-.561-1.541-3.161-2.141-2.981-.72-4.662-1.6-4.662-4.18v-.04c0-2.4 2-4.061 4.782-4.061a7.761 7.761 0 0 1 5.081 1.76l-1.321 1.861a6.351 6.351 0 0 0-3.8-1.441c-1.441 0-2.281.74-2.281 1.66v.04c0 1.08.64 1.561 3.341 2.2 2.961.72 4.481 1.78 4.481 4.1v.04c0 2.62-2.061 4.181-5 4.181a8.623 8.623 0 0 1-5.842-2.239zM418.176 136.042h-4.442v-2.28H425.1v2.28h-4.441v11.723h-2.48zM427.7 133.762h6.242a5.647 5.647 0 0 1 4.041 1.4 4.237 4.237 0 0 1 1.16 3.021v.04a4.2 4.2 0 0 1-3.322 4.24l3.782 5.3h-2.921l-3.441-4.881h-3.081v4.881h-2.46zm6.061 6.941c1.761 0 2.881-.92 2.881-2.34v-.04c0-1.5-1.08-2.321-2.9-2.321h-3.581v4.7zM442.155 133.762h10.382v2.2h-7.922v3.638h7.022v2.2h-7.022v3.761h8.022v2.2h-10.482zM460.516 133.662h2.28l6.161 14.1h-2.6l-1.419-3.381h-6.623l-1.439 3.381h-2.521zm3.52 8.542l-2.421-5.6-2.4 5.6zM471.354 133.762h2.621l4.26 6.621 4.261-6.621h2.621v14h-2.461v-10.039l-4.421 6.6h-.08l-4.381-6.561v10h-2.42zM352.936 157.762h5.52c3.281 0 5.321 1.86 5.321 4.681v.039c0 3.142-2.52 4.782-5.6 4.782H355.4v4.5h-2.46zm5.32 7.281c1.86 0 3.021-1.04 3.021-2.5v-.04c0-1.64-1.18-2.5-3.021-2.5H355.4v5.041zM366.3 157.762h2.46v11.762h7.361v2.241H366.3zM383.636 157.662h2.28l6.161 14.1h-2.6l-1.42-3.381h-6.622L380 171.765h-2.52zm3.52 8.542l-2.421-5.6-2.4 5.6zM396.115 160.042h-4.441v-2.28h11.362v2.28H398.6v11.723h-2.481zM405.635 157.762h10.422V160H408.1v3.821h7.061v2.24H408.1v5.7h-2.46zM418.015 164.8v-.04a7.322 7.322 0 0 1 14.642-.04v.04a7.322 7.322 0 0 1-14.642.04zm12.062 0v-.04a4.8 4.8 0 0 0-4.762-4.981 4.731 4.731 0 0 0-4.72 4.941v.04a4.78 4.78 0 0 0 4.76 4.961 4.714 4.714 0 0 0 4.722-4.921zM435.635 157.762h6.241a5.643 5.643 0 0 1 4.041 1.4 4.237 4.237 0 0 1 1.16 3.021v.04a4.2 4.2 0 0 1-3.321 4.24l3.781 5.3h-2.921l-3.44-4.881H438.1v4.881h-2.46zm6.06 6.941c1.761 0 2.881-.92 2.881-2.34v-.04c0-1.5-1.08-2.321-2.9-2.321H438.1v4.7zM450.1 157.762h2.62l4.261 6.621 4.26-6.621h2.621v14H461.4v-10.039l-4.42 6.6h-.08l-4.381-6.561v10H450.1zM678.207 39.668v-.032a5.671 5.671 0 0 1 5.778-5.794 5.84 5.84 0 0 1 4.386 1.744l-1.265 1.457a4.453 4.453 0 0 0-3.136-1.392 3.771 3.771 0 0 0-3.7 3.953v.032a3.775 3.775 0 0 0 3.7 3.97 4.376 4.376 0 0 0 3.217-1.44l1.264 1.28a5.778 5.778 0 0 1-4.546 1.985 5.636 5.636 0 0 1-5.698-5.763zM689.7 39.668v-.032a5.859 5.859 0 0 1 11.717-.032v.032a5.859 5.859 0 0 1-11.717.032zm9.653 0v-.032a3.839 3.839 0 0 0-3.81-3.985 3.785 3.785 0 0 0-3.783 3.949v.032a3.826 3.826 0 0 0 3.809 3.97 3.773 3.773 0 0 0 3.779-3.934zM703.791 34.035h1.825l6 7.747v-7.747h1.937v11.2h-1.649l-6.178-7.972v7.972h-1.937zM715.68 43.606l1.184-1.408a5.194 5.194 0 0 0 3.537 1.456c1.217 0 1.985-.576 1.985-1.408v-.033c0-.8-.448-1.232-2.529-1.713-2.384-.576-3.729-1.28-3.729-3.344v-.032c0-1.921 1.6-3.249 3.825-3.249a6.212 6.212 0 0 1 4.066 1.408l-1.056 1.488a5.094 5.094 0 0 0-3.042-1.152c-1.152 0-1.824.592-1.824 1.329v.031c0 .865.511 1.249 2.673 1.761 2.369.576 3.585 1.425 3.585 3.281v.032c0 2.1-1.649 3.346-4 3.346a6.9 6.9 0 0 1-4.675-1.793zM726.5 40.485v-6.45h1.969v6.37c0 2.081 1.072 3.185 2.833 3.185 1.745 0 2.817-1.041 2.817-3.105v-6.45h1.969v6.354c0 3.345-1.889 5.026-4.818 5.026-2.917 0-4.77-1.681-4.77-4.93zM738.783 34.035h2.1l3.41 5.3 3.409-5.3h2.1v11.2h-1.969V37.2l-3.537 5.282h-.064l-3.506-5.25v8h-1.937zM752.671 34.035h8.308V35.8h-6.339v2.913h5.618v1.761h-5.618v3.009h6.419v1.761h-8.388zM763.391 34.035h4.994a4.517 4.517 0 0 1 3.233 1.12 3.387 3.387 0 0 1 .929 2.417v.028a3.364 3.364 0 0 1-2.657 3.4l3.025 4.242h-2.337l-2.754-3.906h-2.465v3.906h-1.968zm4.85 5.553c1.408 0 2.305-.736 2.305-1.873v-.031c0-1.2-.864-1.857-2.321-1.857h-2.866v3.761zM774.207 43.606l1.185-1.408a5.192 5.192 0 0 0 3.537 1.456c1.217 0 1.984-.576 1.984-1.408v-.033c0-.8-.447-1.232-2.528-1.713-2.385-.576-3.73-1.28-3.73-3.344v-.032c0-1.921 1.6-3.249 3.825-3.249a6.212 6.212 0 0 1 4.066 1.408l-1.056 1.488a5.092 5.092 0 0 0-3.042-1.152c-1.152 0-1.824.592-1.824 1.329v.031c0 .865.512 1.249 2.673 1.761 2.369.576 3.586 1.425 3.586 3.281v.032c0 2.1-1.65 3.346-4 3.346a6.905 6.905 0 0 1-4.676-1.793z"/></svg>